<?xml version="1.0" encoding="utf-8"?>
<!-- Generator: Adobe Illustrator 24.3.0, SVG Export Plug-In . SVG Version: 6.00 Build 0)  -->
<svg version="1.1" id="Layer_1" xmlns="http://www.w3.org/2000/svg" xmlns:xlink="http://www.w3.org/1999/xlink" x="0px" y="0px"
	 viewBox="0 0 61.4 97.7" style="enable-background:new 0 0 61.4 97.7;" xml:space="preserve">
<g>
	<path d="M56.3,31.9c-0.5-0.9-1.1-1.3-1.8-1.3H5.4c-0.9,0-1.6,0.7-1.6,1.6v33.1l0.1,0.9l0,0l0,0l0,0l0,0l0,0v0.1h0.2H4h0.1v0.2h0.1
		v0.1h0.3l0.7,0.7h49.6h0.3l0.4-0.2l0.6-0.6v-0.2l0.1-0.1l0.1-0.2l0.2-0.2l0.1-33.7L56.3,31.9z M7,40l14.1,11.2L7,62.4V40z
		 M10.1,64.1l13.7-10.9l5,4c0.4,0.4,0.9,0.4,1.1,0.4c0.3,0,0.7-0.2,0.9-0.2l5.3-4.1l13.7,10.9H10.1V64.1z M38.6,51.1l14.1-11.2
		l0.1,22.5L38.6,51.1z M52.8,35.8L29.9,54L7,35.8v-1.5h45.8V35.8z"/>
</g>
</svg>
